# xmcd
#
# Track frame offsets:
#	150
#	16785
#	34475
#	60787
#	85854
#	111840
#	138074
#	159718
#	179127
#	201906
#	220980
#	244060
#	268956
#	294864
#
# Disc length: 4275 seconds
#
# Revision: 1
# Processed by: cddbd v1.5.1PL2 Copyright (c) Steve Scherf et al.
# Submitted via: audiograbber 1.83.01
#
DISCID=c910b10e
DTITLE=bliss - essential lounge tracks
DYEAR=2005
DGENRE=Jazz
TTITLE0=Thievery Corporation - Holographic Universe
TTITLE1=Big Muff - My Funny Valentine
TTITLE2=dZihan and Kamien - Stiff Jazz
TTITLE3=The Tao of Groove featuring Leslie King - One (Is the loneliest Number)
TTITLE4=Tosca featuring Sephan Graf Hadik Wildner - Rolf Royce
TTITLE5=Doris Days (Zero 7 Mix) - To Ulrike M.
TTITLE6=Erto Anime - Portrait
TTITLE7=Le D - Sensationnel
TTITLE8=Helena (Montmartre Remix by Flush) - M'en Aller
TTITLE9=Flunk - Blue Monday
TTITLE10=Billy Paul Williams - Night and Day
TTITLE11=Mo' Horizons - Foto Viva
TTITLE12=Llorca featuring Nicole Graham - Indigo Blues (Mood Indigo)
TTITLE13=Stryke (G-Corp Remix) - Ain't No Sunshine
EXTD=YEAR: 2005
EXTT0=
EXTT1=
EXTT2=
EXTT3=
EXTT4=
EXTT5=
EXTT6=
EXTT7=
EXTT8=
EXTT9=
EXTT10=
EXTT11=
EXTT12=
EXTT13=
PLAYORDER=
